<svg width="1280" height="420" viewBox="0 0 1280 420" fill="none" xmlns="http://www.w3.org/2000/svg">
  <defs>
    <linearGradient id="bg" x1="0" y1="0" x2="1280" y2="420" gradientUnits="userSpaceOnUse">
      <stop stop-color="#DFEFFC"/>
      <stop offset="0.48" stop-color="#F7EFE5"/>
      <stop offset="1" stop-color="#F8CF62"/>
    </linearGradient>
    <linearGradient id="accent" x1="210" y1="116" x2="787" y2="342" gradientUnits="userSpaceOnUse">
      <stop stop-color="#DE4331"/>
      <stop offset="1" stop-color="#FE9750"/>
    </linearGradient>
    <filter id="soft" x="-20%" y="-20%" width="140%" height="140%" color-interpolation-filters="sRGB">
      <feDropShadow dx="0" dy="24" stdDeviation="34" flood-color="#4E3F42" flood-opacity="0.16"/>
    </filter>
  </defs>
  <rect width="1280" height="420" rx="42" fill="url(#bg)"/>
  <circle cx="1064" cy="95" r="120" fill="#fff" fill-opacity="0.24"/>
  <circle cx="1026" cy="350" r="220" fill="#DE4331" fill-opacity="0.10"/>
  <circle cx="146" cy="338" r="190" fill="#DE4331" fill-opacity="0.13"/>
  <g filter="url(#soft)">
    <rect x="82" y="74" width="392" height="272" rx="36" fill="#FFFFFF" fill-opacity="0.72"/>
    <rect x="520" y="104" width="252" height="92" rx="28" fill="#FFFFFF" fill-opacity="0.74"/>
    <rect x="820" y="92" width="330" height="226" rx="36" fill="#FFFFFF" fill-opacity="0.70"/>
  </g>
  <text x="124" y="154" fill="#4E3F42" font-family="Inter, ui-sans-serif, system-ui, -apple-system, BlinkMacSystemFont, 'Segoe UI', sans-serif" font-size="44" font-weight="800" letter-spacing="0">
    my-blogs
  </text>
  <text x="124" y="204" fill="#4E3F42" fill-opacity="0.78" font-family="Inter, ui-sans-serif, system-ui, -apple-system, BlinkMacSystemFont, 'Segoe UI', sans-serif" font-size="24" font-weight="600" letter-spacing="0">
    personal blog workspace
  </text>
  <rect x="124" y="242" width="248" height="44" rx="22" fill="url(#accent)"/>
  <text x="150" y="272" fill="#fff" font-family="Inter, ui-sans-serif, system-ui, -apple-system, BlinkMacSystemFont, 'Segoe UI', sans-serif" font-size="18" font-weight="700" letter-spacing="0">
    code less, architect more
  </text>
  <text x="556" y="144" fill="#DE4331" font-family="Inter, ui-sans-serif, system-ui, -apple-system, BlinkMacSystemFont, 'Segoe UI', sans-serif" font-size="20" font-weight="800" letter-spacing="0">
    GitHub as CMS
  </text>
  <text x="556" y="176" fill="#4E3F42" fill-opacity="0.72" font-family="Inter, ui-sans-serif, system-ui, -apple-system, BlinkMacSystemFont, 'Segoe UI', sans-serif" font-size="16" font-weight="600" letter-spacing="0">
    write · commit · deploy
  </text>
  <g transform="translate(870 138)">
    <rect x="0" y="0" width="230" height="34" rx="17" fill="#FFFFFF"/>
    <circle cx="25" cy="17" r="7" fill="#DE4331"/>
    <rect x="48" y="11" width="142" height="12" rx="6" fill="#4E3F42" fill-opacity="0.22"/>
    <rect x="0" y="58" width="180" height="34" rx="17" fill="#FFFFFF"/>
    <circle cx="25" cy="75" r="7" fill="#FE9750"/>
    <rect x="48" y="69" width="98" height="12" rx="6" fill="#4E3F42" fill-opacity="0.22"/>
    <rect x="0" y="116" width="252" height="34" rx="17" fill="#FFFFFF"/>
    <circle cx="25" cy="133" r="7" fill="#F8CF62"/>
    <rect x="48" y="127" width="162" height="12" rx="6" fill="#4E3F42" fill-opacity="0.22"/>
  </g>
</svg>
